<?xml version="1.0" encoding="UTF-8"?>
<svg width="479px" height="61px" viewBox="0 0 479 61" version="1.1" xmlns="http://www.w3.org/2000/svg" xmlns:xlink="http://www.w3.org/1999/xlink">
    <!-- Generator: Sketch 49.3 (51167) - http://www.bohemiancoding.com/sketch -->
    <title>brand / notag-dark@2x</title>
    <desc>Created with Sketch.</desc>
    <defs>
        <polygon id="path-1" points="0.4221 0.798 13.3091 0.798 13.3091 47.2292 0.4221 47.2292"></polygon>
        <polygon id="path-3" points="0.8272 0.9595 34.4352 0.9595 34.4352 46 0.8272 46"></polygon>
        <polygon id="path-5" points="0.7516 0.3271 27.158 0.3271 27.158 32.6071 0.7516 32.6071"></polygon>
    </defs>
    <g id="brand-/-notag-dark" stroke="none" stroke-width="1" fill="none" fill-rule="evenodd">
        <g id="notag-dark">
            <path d="M100.5245,28.2903 C100.5245,27.3643 100.4185,26.6273 100.2085,26.0793 C99.9975,25.5323 99.4285,25.2573 98.5025,25.2573 C97.5765,25.2573 96.9125,25.4583 96.5125,25.8583 C96.1115,26.2583 95.9135,26.6903 95.9135,27.1533 L95.9135,46.8623 L83.2155,46.8623 L83.2155,2.5163 C84.2265,2.3063 85.1415,2.1803 85.9625,2.1373 C86.7845,2.0963 87.4685,2.0743 88.0165,2.0743 C89.0265,2.0743 89.9955,2.1693 90.9225,2.3583 C91.8485,2.5473 92.6805,2.8743 93.4175,3.3373 C94.1535,3.8013 94.7435,4.4643 95.1865,5.3273 C95.6285,6.1913 95.8495,7.2753 95.8495,8.5803 L95.8495,19.3193 C96.3555,18.4773 97.2495,17.6353 98.5345,16.7923 C99.8185,15.9513 101.5985,15.5293 103.8725,15.5293 C106.3145,15.5293 108.2725,16.1613 109.7475,17.4243 C111.2205,18.6883 112.2115,20.3523 112.7155,22.4153 C112.8425,22.8793 112.9375,23.4053 113.0005,23.9943 C113.0635,24.5843 113.1055,25.1943 113.1275,25.8263 C113.1485,26.4583 113.1685,27.0693 113.1905,27.6583 C113.2115,28.2483 113.2215,28.7533 113.2215,29.1743 L113.2215,46.6093 C111.9585,47.1573 110.3995,47.4313 108.5475,47.4313 C106.6095,47.4313 105.1045,47.1983 104.0295,46.7363 C102.9565,46.2733 102.1555,45.6623 101.6295,44.9033 C101.1025,44.1463 100.7865,43.2733 100.6825,42.2833 C100.5765,41.2933 100.5245,40.2513 100.5245,39.1553 L100.5245,28.2903 Z" id="Fill-1" fill="#222222"></path>
            <path d="M135.7735,31.5115 C135.7735,29.6165 135.5205,28.0375 135.0155,26.7735 C134.5105,25.5105 133.6045,24.8795 132.2995,24.8795 C131.5825,24.8795 130.9935,25.0685 130.5305,25.4475 C130.0665,25.8265 129.6885,26.3315 129.3935,26.9635 C129.0975,27.5945 128.8985,28.3115 128.7935,29.1115 C128.6875,29.9115 128.6355,30.7335 128.6355,31.5745 C128.6355,32.5015 128.6875,33.3865 128.7935,34.2285 C128.8985,35.0715 129.0975,35.8185 129.3935,36.4705 C129.6885,37.1245 130.0565,37.6395 130.4995,38.0185 C130.9405,38.3975 131.5195,38.5865 132.2365,38.5865 C132.9525,38.5865 133.5415,38.3875 134.0045,37.9865 C134.4685,37.5875 134.8255,37.0615 135.0785,36.4075 C135.3315,35.7555 135.5095,35.0075 135.6155,34.1645 C135.7205,33.3235 135.7735,32.4385 135.7735,31.5115 M148.3445,31.3225 C148.3445,33.4695 148.0495,35.5455 147.4605,37.5445 C146.8705,39.5455 145.9335,41.3035 144.6495,42.8205 C143.3635,44.3365 141.7015,45.5465 139.6585,46.4525 C137.6155,47.3575 135.1205,47.8095 132.1735,47.8095 C129.2665,47.8095 126.8025,47.3685 124.7815,46.4835 C122.7605,45.5995 121.1075,44.4105 119.8225,42.9145 C118.5385,41.4195 117.6015,39.6925 117.0115,37.7345 C116.4215,35.7755 116.1275,33.7025 116.1275,31.5115 C116.1275,29.3225 116.4635,27.2475 117.1385,25.2895 C117.8115,23.3315 118.8325,21.6365 120.2025,20.2045 C121.5695,18.7735 123.2655,17.6355 125.2875,16.7925 C127.3085,15.9505 129.6885,15.5295 132.4255,15.5295 C135.3315,15.5295 137.7955,15.9505 139.8165,16.7925 C141.8375,17.6355 143.4805,18.7735 144.7445,20.2045 C146.0075,21.6365 146.9235,23.3105 147.4915,25.2255 C148.0615,27.1425 148.3445,29.1745 148.3445,31.3225" id="Fill-3" fill="#222222"></path>
            <path d="M151.1871,2.5159 C152.1981,2.3069 153.1131,2.1799 153.9351,2.1379 C154.7561,2.0959 155.4401,2.0739 155.9881,2.0739 C156.9981,2.0739 157.9781,2.1689 158.9251,2.3579 C159.8731,2.5479 160.7041,2.8859 161.4211,3.3689 C162.1361,3.8539 162.7151,4.5279 163.1581,5.3909 C163.6001,6.2549 163.8211,7.3599 163.8211,8.7069 L163.8211,46.6099 C162.1791,47.1569 160.6411,47.4319 159.2101,47.4319 C157.2721,47.4319 155.7671,47.1989 154.6921,46.7359 C153.6191,46.2729 152.8191,45.6619 152.2921,44.9039 C151.7651,44.1459 151.4491,43.2739 151.3451,42.2839 C151.2391,41.2929 151.1871,40.2519 151.1871,39.1559 L151.1871,2.5159 Z" id="Fill-5" fill="#222222"></path>
            <g id="Group-9" transform="translate(167.000000, 0.202400)">
                <mask id="mask-2" fill="white">
                    <use xlink:href="#path-1"></use>
                </mask>
                <g id="Clip-8"></g>
                <path d="M13.3091,46.4072 C11.6661,46.9542 10.1291,47.2292 8.6971,47.2292 C6.7601,47.2292 5.2541,46.9962 4.1801,46.5332 C3.1071,46.0712 2.3061,45.4602 1.7801,44.7012 C1.2531,43.9442 0.9371,43.0712 0.8321,42.0812 C0.7271,41.0912 0.6751,40.0492 0.6751,38.9532 L0.6751,16.4012 C1.9371,16.1912 2.9171,16.0642 3.6121,16.0222 C4.3071,15.9802 4.9271,15.9592 5.4761,15.9592 C6.4861,15.9592 7.4651,16.0532 8.4131,16.2432 C9.3611,16.4322 10.1921,16.7702 10.9081,17.2532 C11.6241,17.7392 12.2031,18.4122 12.6451,19.2752 C13.0871,20.1392 13.3091,21.2442 13.3091,22.5912 L13.3091,46.4072 Z M12.8031,6.7362 C12.8031,8.5472 12.2131,9.9792 11.0351,11.0312 C9.8551,12.0842 8.3811,12.6112 6.6121,12.6112 C4.8441,12.6112 3.3691,12.0842 2.1901,11.0312 C1.0111,9.9792 0.4221,8.5472 0.4221,6.7362 C0.4221,4.9252 1.0111,3.4832 2.1901,2.4082 C3.3691,1.3342 4.8441,0.7972 6.6121,0.7972 C8.3811,0.7972 9.8551,1.3342 11.0351,2.4082 C12.2131,3.4832 12.8031,4.9252 12.8031,6.7362 Z" id="Fill-7" fill="#222222" mask="url(#mask-2)"></path>
            </g>
            <path d="M196.1016,31.8909 C196.1016,32.9019 196.1646,33.8399 196.2906,34.7019 C196.4166,35.5649 196.6386,36.3239 196.9546,36.9759 C197.2696,37.6299 197.6816,38.1449 198.1856,38.5239 C198.6906,38.9029 199.3236,39.0929 200.0816,39.0929 C200.5866,39.0929 200.9856,39.0609 201.2816,38.9979 C201.5766,38.9339 201.7866,38.8819 201.9136,38.8399 L201.9136,25.2579 C201.6606,25.0899 201.3336,24.9739 200.9346,24.9109 C200.5336,24.8479 200.1646,24.8159 199.8286,24.8159 C198.3966,24.8159 197.4166,25.4469 196.8916,26.7109 C196.3636,27.9739 196.1016,29.7019 196.1016,31.8909 Z M205.0716,46.8629 C204.4396,46.8629 203.8716,46.7159 203.3656,46.4199 C202.8606,46.1269 202.6076,45.4949 202.6076,44.5239 C202.0176,45.2829 201.0806,45.9679 199.7966,46.5789 C198.5116,47.1879 196.9006,47.4949 194.9646,47.4949 C193.5326,47.4949 192.1226,47.2619 190.7316,46.7989 C189.3416,46.3369 188.0886,45.5249 186.9736,44.3669 C185.8566,43.2089 184.9516,41.6299 184.2566,39.6289 C183.5616,37.6299 183.2146,35.1129 183.2146,32.0799 C183.2146,29.0489 183.5396,26.4799 184.1936,24.3729 C184.8466,22.2679 185.7196,20.5619 186.8146,19.2569 C187.9096,17.9519 189.1726,17.0039 190.6056,16.4139 C192.0376,15.8249 193.5326,15.5299 195.0906,15.5299 C196.1016,15.5299 197.0066,15.6359 197.8076,15.8449 C198.6066,16.0569 199.2916,16.2989 199.8606,16.5719 C200.4286,16.8459 200.8926,17.1199 201.2496,17.3929 C201.6076,17.6669 201.8496,17.8669 201.9766,17.9939 L201.9766,2.5159 C202.9876,2.3069 203.8926,2.1799 204.6926,2.1379 C205.4926,2.0959 206.1666,2.0739 206.7136,2.0739 C207.7256,2.0739 208.7046,2.1689 209.6516,2.3579 C210.5996,2.5479 211.4306,2.8859 212.1466,3.3689 C212.8626,3.8539 213.4416,4.5279 213.8836,5.3909 C214.3266,6.2549 214.5476,7.3599 214.5476,8.7069 L214.5476,46.8629 L205.0716,46.8629 Z" id="Fill-10" fill="#222222"></path>
            <path d="M234.6358,32.7122 C233.8338,32.7972 233.0778,32.9232 232.3628,33.0902 C231.6438,33.2592 231.0248,33.5022 230.4958,33.8182 C229.9708,34.1332 229.5498,34.5442 229.2348,35.0492 C228.9178,35.5542 228.7608,36.2082 228.7608,37.0072 C228.7608,37.9772 229.0228,38.7242 229.5498,39.2512 C230.0768,39.7772 230.8018,40.0402 231.7308,40.0402 C232.4868,40.0402 233.1608,39.8722 233.7508,39.5342 C234.3398,39.1982 234.6358,38.6922 234.6358,38.0182 L234.6358,32.7122 Z M246.4498,39.9772 C246.4498,41.0292 246.5328,42.1782 246.6988,43.4192 C246.8688,44.6612 247.1008,45.7472 247.3968,46.6722 C246.8048,46.8422 246.2808,46.9782 245.8178,47.0832 C245.3518,47.1882 244.9018,47.2732 244.4568,47.3362 C244.0158,47.3992 243.5538,47.4412 243.0698,47.4622 C242.5848,47.4842 242.0478,47.4952 241.4588,47.4952 C238.0478,47.4952 236.0678,46.5262 235.5218,44.5872 C234.8028,45.3052 233.7598,45.9572 232.3938,46.5462 C231.0248,47.1352 229.2658,47.4312 227.1178,47.4312 C225.8118,47.4312 224.5598,47.2622 223.3598,46.9252 C222.1588,46.5892 221.0948,46.0522 220.1698,45.3142 C219.2428,44.5782 218.5048,43.6092 217.9578,42.4102 C217.4098,41.2082 217.1368,39.7452 217.1368,38.0182 C217.1368,35.5762 217.7788,33.6282 219.0638,32.1752 C220.3478,30.7222 221.9068,29.6172 223.7388,28.8582 C225.5708,28.1012 227.4658,27.6172 229.4228,27.4062 C231.3818,27.1952 233.0568,27.0892 234.4448,27.0892 L234.4448,26.2052 C234.4448,25.0272 234.0558,24.2792 233.2758,23.9622 C232.4978,23.6472 231.5608,23.4892 230.4658,23.4892 C228.9908,23.4892 227.5388,23.6892 226.1078,24.0892 C224.6758,24.4902 223.0748,25.1112 221.3058,25.9522 C220.5058,24.9842 219.9058,24.0372 219.5058,23.1102 C219.1058,22.1842 218.9058,21.4892 218.9058,21.0252 C218.9058,20.3942 219.1158,19.8042 219.5368,19.2562 C219.9578,18.7102 220.8218,18.0992 222.1278,17.4242 C223.2648,16.8352 224.8018,16.3722 226.7388,16.0352 C228.6758,15.6982 230.6568,15.5292 232.6778,15.5292 C237.6038,15.5292 241.1318,16.4992 243.2568,18.4352 C245.3858,20.3732 246.4498,23.4472 246.4498,27.6582 L246.4498,39.9772 Z" id="Fill-12" fill="#222222"></path>
            <g id="Group-16" transform="translate(246.000000, 15.202400)">
                <mask id="mask-4" fill="white">
                    <use xlink:href="#path-3"></use>
                </mask>
                <g id="Clip-15"></g>
                <path d="M26.4122,32.4805 C26.2862,32.9015 26.1382,33.3855 25.9702,33.9355 C25.8002,34.4805 25.6002,35.0395 25.3702,35.6085 C25.1372,36.1775 24.9052,36.7335 24.6742,37.2815 C24.4422,37.8295 24.2002,38.2935 23.9472,38.6725 C22.4742,41.3255 20.6632,43.2095 18.5162,44.3255 C16.3672,45.4415 13.7782,46.0005 10.7462,46.0005 C8.5982,46.0005 6.8072,45.6725 5.3762,45.0205 C3.9432,44.3665 3.2272,43.1145 3.2272,41.2625 C3.2272,40.5445 3.3952,39.6915 3.7332,38.7035 C4.0692,37.7135 4.6392,36.5245 5.4392,35.1345 C6.1542,35.5975 6.9122,35.9245 7.7122,36.1145 C8.5132,36.3035 9.2072,36.3975 9.7982,36.3975 C11.3132,36.3975 12.4922,36.0295 13.3352,35.2925 C14.1782,34.5545 14.7882,33.1765 15.1682,31.1545 L10.1772,31.1545 L0.8272,2.0335 C1.7532,1.6965 2.8172,1.4325 4.0162,1.2435 C5.2192,1.0535 6.3642,0.9595 7.4612,0.9595 C8.7242,0.9595 9.7982,1.1385 10.6832,1.4955 C11.5662,1.8545 12.3022,2.3275 12.8922,2.9175 C13.4812,3.5075 13.9352,4.1915 14.2522,4.9705 C14.5672,5.7505 14.8082,6.5395 14.9772,7.3395 L17.7572,21.2365 L18.0102,21.2365 L20.7892,7.2755 C21.1252,5.5915 21.8622,4.1175 23.0012,2.8535 C24.1382,1.5905 25.8212,0.9595 28.0552,0.9595 C30.2862,0.9595 32.4132,1.3595 34.4352,2.1585 L26.4122,32.4805 Z" id="Fill-14" fill="#222222" mask="url(#mask-4)"></path>
            </g>
            <path d="M310.1221,28.2903 C310.1221,27.3643 310.0181,26.6273 309.8081,26.0793 C309.5971,25.5323 309.0271,25.2573 308.1011,25.2573 C307.1751,25.2573 306.5121,25.4583 306.1101,25.8583 C305.7111,26.2583 305.5111,26.6903 305.5111,27.1533 L305.5111,46.8623 L292.8131,46.8623 L292.8131,2.5163 C293.8251,2.3063 294.7411,2.1803 295.5611,2.1373 C296.3841,2.0963 297.0671,2.0743 297.6141,2.0743 C298.6261,2.0743 299.5951,2.1693 300.5211,2.3583 C301.4471,2.5473 302.2781,2.8743 303.0161,3.3373 C303.7531,3.8013 304.3441,4.4643 304.7841,5.3273 C305.2271,6.1913 305.4471,7.2753 305.4471,8.5803 L305.4471,19.3193 C305.9531,18.4773 306.8481,17.6353 308.1331,16.7923 C309.4171,15.9513 311.1971,15.5293 313.4711,15.5293 C315.9131,15.5293 317.8701,16.1613 319.3471,17.4243 C320.8191,18.6883 321.8101,20.3523 322.3151,22.4153 C322.4411,22.8793 322.5361,23.4053 322.6001,23.9943 C322.6621,24.5843 322.7041,25.1943 322.7261,25.8263 C322.7461,26.4583 322.7681,27.0693 322.7891,27.6583 C322.8091,28.2483 322.8191,28.7533 322.8191,29.1743 L322.8191,46.6093 C321.5571,47.1573 319.9991,47.4313 318.1451,47.4313 C316.2081,47.4313 314.7031,47.1983 313.6291,46.7363 C312.5551,46.2733 311.7541,45.6623 311.2281,44.9033 C310.7001,44.1463 310.3861,43.2733 310.2811,42.2833 C310.1751,41.2933 310.1221,40.2513 310.1221,39.1553 L310.1221,28.2903 Z" id="Fill-17" fill="#222222"></path>
            <path d="M345.3741,31.5115 C345.3741,29.6165 345.1211,28.0375 344.6151,26.7735 C344.1091,25.5105 343.2041,24.8795 341.8991,24.8795 C341.1821,24.8795 340.5931,25.0685 340.1301,25.4475 C339.6661,25.8265 339.2861,26.3315 338.9931,26.9635 C338.6971,27.5945 338.4971,28.3115 338.3921,29.1115 C338.2871,29.9115 338.2341,30.7335 338.2341,31.5745 C338.2341,32.5015 338.2871,33.3865 338.3921,34.2285 C338.4971,35.0715 338.6971,35.8185 338.9931,36.4705 C339.2861,37.1245 339.6561,37.6395 340.0981,38.0185 C340.5401,38.3975 341.1191,38.5865 341.8361,38.5865 C342.5521,38.5865 343.1411,38.3875 343.6041,37.9865 C344.0671,37.5875 344.4261,37.0615 344.6791,36.4075 C344.9321,35.7555 345.1101,35.0075 345.2151,34.1645 C345.3201,33.3235 345.3741,32.4385 345.3741,31.5115 M357.9451,31.3225 C357.9451,33.4695 357.6481,35.5455 357.0601,37.5445 C356.4691,39.5455 355.5331,41.3035 354.2481,42.8205 C352.9631,44.3365 351.3011,45.5465 349.2591,46.4525 C347.2151,47.3575 344.7201,47.8095 341.7721,47.8095 C338.8671,47.8095 336.4021,47.3685 334.3821,46.4835 C332.3601,45.5995 330.7071,44.4105 329.4221,42.9145 C328.1381,41.4195 327.2011,39.6925 326.6101,37.7345 C326.0211,35.7755 325.7271,33.7025 325.7271,31.5115 C325.7271,29.3225 326.0631,27.2475 326.7371,25.2895 C327.4111,23.3315 328.4321,21.6365 329.8021,20.2045 C331.1701,18.7735 332.8641,17.6355 334.8871,16.7925 C336.9081,15.9505 339.2861,15.5295 342.0251,15.5295 C344.9321,15.5295 347.3951,15.9505 349.4161,16.7925 C351.4381,17.6355 353.0801,18.7735 354.3441,20.2045 C355.6061,21.6365 356.5221,23.3105 357.0921,25.2255 C357.6591,27.1425 357.9451,29.1745 357.9451,31.3225" id="Fill-19" fill="#222222"></path>
            <path d="M390.8555,46.8626 L381.5695,46.8626 C380.4745,46.8626 379.7485,46.6316 379.3895,46.1666 C379.0325,45.7046 378.8535,44.8626 378.8535,43.6406 C378.3475,44.5246 377.4105,45.3776 376.0425,46.1986 C374.6735,47.0196 372.8315,47.4316 370.5145,47.4316 C367.8615,47.4316 365.7975,46.7996 364.3235,45.5356 C362.8495,44.2726 361.8605,42.6086 361.3545,40.5456 C361.2285,40.0826 361.1335,39.5556 361.0715,38.9666 C361.0075,38.3766 360.9645,37.7656 360.9445,37.1336 C360.9225,36.5026 360.9015,35.8926 360.8805,35.3026 C360.8595,34.7126 360.8485,34.2076 360.8485,33.7866 L360.8485,16.6036 C361.9025,16.3936 362.8395,16.2666 363.6605,16.2246 C364.4825,16.1826 365.1665,16.1616 365.7125,16.1616 C366.7245,16.1616 367.6935,16.2566 368.6195,16.4456 C369.5455,16.6346 370.3765,16.9616 371.1145,17.4246 C371.8515,17.8886 372.4425,18.5516 372.8825,19.4146 C373.3265,20.2786 373.5465,21.3626 373.5465,22.6686 L373.5465,34.6706 C373.5465,35.5966 373.6835,36.3346 373.9585,36.8816 C374.2315,37.4286 374.8315,37.7026 375.7575,37.7026 C376.6835,37.7026 377.3155,37.5036 377.6535,37.1026 C377.9895,36.7026 378.1585,36.2716 378.1585,35.8076 L378.1585,16.6036 C379.2105,16.3936 380.1485,16.2666 380.9695,16.2246 C381.7915,16.1826 382.4745,16.1616 383.0225,16.1616 C384.0345,16.1616 385.0125,16.2566 385.9595,16.4456 C386.9075,16.6346 387.7385,16.9726 388.4555,17.4556 C389.1705,17.9416 389.7515,18.6146 390.1925,19.4776 C390.6345,20.3416 390.8555,21.4466 390.8555,22.7936 L390.8555,46.8626 Z" id="Fill-21" fill="#222222"></path>
            <path d="M406.3956,15.5295 C409.8896,15.5295 412.9026,16.0565 415.4276,17.1095 C416.5666,17.5725 417.5026,18.1305 418.2406,18.7825 C418.9756,19.4365 419.3456,20.2045 419.3456,21.0885 C419.3456,21.8465 419.1016,22.7525 418.6196,23.8045 C418.1346,24.8585 417.5336,25.8685 416.8176,26.8365 C415.5546,25.8685 414.2286,25.0795 412.8386,24.4675 C411.4496,23.8585 410.0386,23.5525 408.6066,23.5525 C406.7946,23.5525 405.8896,24.0795 405.8896,25.1325 C405.8896,25.8055 406.2276,26.3215 406.9016,26.6795 C407.5736,27.0375 408.4166,27.3425 409.4276,27.5945 C410.4376,27.8475 411.5326,28.1325 412.7116,28.4475 C413.8906,28.7635 414.9876,29.2375 415.9976,29.8695 C417.0076,30.5015 417.8496,31.3645 418.5236,32.4595 C419.1976,33.5545 419.5356,34.9865 419.5356,36.7555 C419.5356,40.1655 418.3556,42.8615 415.9976,44.8405 C413.6376,46.8205 410.1646,47.8095 405.5746,47.8095 C402.9616,47.8095 400.9306,47.6085 399.4786,47.2095 C398.0256,46.8095 396.8756,46.3995 396.0366,45.9785 C394.9396,45.4315 394.1816,44.8315 393.7606,44.1775 C393.3396,43.5255 393.1286,42.8415 393.1286,42.1245 C393.1286,41.0295 393.3926,39.9565 393.9176,38.9025 C394.4456,37.8505 395.0456,36.8185 395.7196,35.8075 C396.2236,36.2715 396.8026,36.7025 397.4566,37.1025 C398.1086,37.5035 398.8146,37.8705 399.5726,38.2075 C400.3316,38.5455 401.1096,38.8075 401.9106,38.9975 C402.7086,39.1875 403.4896,39.2815 404.2476,39.2815 C405.3416,39.2815 406.1216,39.1035 406.5846,38.7445 C407.0476,38.3875 407.2796,37.9345 407.2796,37.3865 C407.2796,36.7555 406.9316,36.2495 406.2386,35.8705 C405.5416,35.4915 404.6896,35.1545 403.6796,34.8595 C402.6676,34.5655 401.5526,34.2285 400.3316,33.8485 C399.1096,33.4695 397.9936,32.9545 396.9826,32.3005 C395.9726,31.6485 395.1206,30.7845 394.4236,29.7115 C393.7306,28.6375 393.3816,27.2375 393.3816,25.5105 C393.3816,23.8265 393.7396,22.3515 394.4566,21.0885 C395.1716,19.8245 396.1296,18.7825 397.3306,17.9615 C398.5296,17.1405 399.9106,16.5305 401.4676,16.1295 C403.0256,15.7305 404.6676,15.5295 406.3956,15.5295" id="Fill-23" fill="#222222"></path>
            <path d="M439.5587,27.9744 C439.5587,26.2054 439.3167,25.0054 438.8317,24.3734 C438.3477,23.7414 437.5587,23.4264 436.4627,23.4264 C434.4837,23.4264 433.4947,24.9424 433.4947,27.9744 L439.5587,27.9744 Z M440.1277,38.9664 C441.8117,38.9664 443.2227,38.7134 444.3597,38.2074 C445.4977,37.7034 446.6347,37.0294 447.7717,36.1864 C448.3187,37.0294 448.8667,37.9974 449.4137,39.0924 C449.9607,40.1884 450.2357,41.1564 450.2357,41.9984 C450.2357,42.7154 450.0457,43.3874 449.6667,44.0194 C449.2877,44.6504 448.6137,45.2634 447.6447,45.8524 C446.7177,46.3994 445.4747,46.8624 443.9187,47.2424 C442.3597,47.6214 440.3807,47.8094 437.9797,47.8094 C436.2517,47.8094 434.3997,47.5984 432.4207,47.1784 C430.4407,46.7574 428.6087,45.9374 426.9237,44.7144 C425.2407,43.4924 423.8397,41.7764 422.7227,39.5664 C421.6087,37.3554 421.0497,34.4604 421.0497,30.8794 C421.0497,28.2274 421.5017,25.9324 422.4087,23.9944 C423.3137,22.0584 424.4927,20.4564 425.9457,19.1934 C427.3977,17.9304 429.0617,17.0044 430.9357,16.4144 C432.8097,15.8244 434.6947,15.5294 436.5897,15.5294 C439.1577,15.5294 441.3487,15.9084 443.1607,16.6664 C444.9707,17.4244 446.4337,18.4354 447.5507,19.6984 C448.6657,20.9624 449.4767,22.4364 449.9827,24.1204 C450.4877,25.8064 450.7407,27.5754 450.7407,29.4274 L450.7407,30.2804 C450.7407,30.6384 450.7297,31.0064 450.7087,31.3864 C450.6877,31.7644 450.6657,32.1224 450.6457,32.4594 C450.6237,32.7974 450.5917,33.0504 450.5497,33.2174 L433.6837,33.2174 C433.8937,34.8184 434.4837,36.1774 435.4537,37.2914 C436.4217,38.4084 437.9797,38.9664 440.1277,38.9664 Z" id="Fill-25" fill="#222222"></path>
            <g id="Group-29" transform="translate(451.000000, 15.202400)">
                <mask id="mask-6" fill="white">
                    <use xlink:href="#path-5"></use>
                </mask>
                <g id="Clip-28"></g>
                <path d="M14.0186,0.3271 C17.5126,0.3271 20.5256,0.8541 23.0516,1.9071 C24.1896,2.3701 25.1256,2.9281 25.8636,3.5801 C26.5986,4.2341 26.9686,5.0021 26.9686,5.8861 C26.9686,6.6441 26.7246,7.5501 26.2426,8.6021 C25.7576,9.6561 25.1566,10.6661 24.4406,11.6341 C23.1776,10.6661 21.8516,9.8771 20.4616,9.2651 C19.0726,8.6561 17.6616,8.3501 16.2296,8.3501 C14.4176,8.3501 13.5126,8.8771 13.5126,9.9301 C13.5126,10.6031 13.8506,11.1191 14.5246,11.4771 C15.1966,11.8351 16.0396,12.1401 17.0506,12.3921 C18.0606,12.6451 19.1556,12.9301 20.3346,13.2451 C21.5136,13.5611 22.6106,14.0351 23.6206,14.6671 C24.6306,15.2991 25.4726,16.1621 26.1466,17.2571 C26.8206,18.3521 27.1586,19.7841 27.1586,21.5531 C27.1586,24.9631 25.9786,27.6591 23.6206,29.6381 C21.2606,31.6181 17.7876,32.6071 13.1986,32.6071 C10.5846,32.6071 8.5536,32.4061 7.1016,32.0071 C5.6486,31.6071 4.4986,31.1971 3.6596,30.7761 C2.5626,30.2291 1.8046,29.6291 1.3836,28.9751 C0.9626,28.3231 0.7516,27.6391 0.7516,26.9221 C0.7516,25.8271 1.0156,24.7541 1.5406,23.7001 C2.0686,22.6481 2.6686,21.6161 3.3426,20.6051 C3.8466,21.0691 4.4256,21.5001 5.0796,21.9001 C5.7316,22.3011 6.4386,22.6681 7.1956,23.0051 C7.9546,23.3431 8.7336,23.6051 9.5336,23.7951 C10.3316,23.9851 11.1126,24.0791 11.8706,24.0791 C12.9646,24.0791 13.7446,23.9011 14.2076,23.5421 C14.6706,23.1851 14.9026,22.7321 14.9026,22.1841 C14.9026,21.5531 14.5546,21.0471 13.8616,20.6681 C13.1646,20.2891 12.3126,19.9521 11.3026,19.6571 C10.2906,19.3631 9.1756,19.0261 7.9546,18.6461 C6.7326,18.2671 5.6166,17.7521 4.6056,17.0981 C3.5956,16.4461 2.7436,15.5821 2.0466,14.5091 C1.3536,13.4351 1.0046,12.0351 1.0046,10.3081 C1.0046,8.6241 1.3626,7.1491 2.0796,5.8861 C2.7946,4.6221 3.7526,3.5801 4.9536,2.7591 C6.1526,1.9381 7.5336,1.3281 9.0906,0.9271 C10.6486,0.5281 12.2906,0.3271 14.0186,0.3271" id="Fill-27" fill="#222222" mask="url(#mask-6)"></path>
            </g>
            <path d="M27.1431,2.5286 C44.6571,8.2736 54.3081,18.7256 54.3081,18.7256 L51.7261,22.1586 C51.6791,22.1206 49.7901,20.2066 46.6801,18.0226 L46.6801,46.9786 L7.5971,46.9786 L7.5971,17.5286 C4.5261,19.6606 2.5681,21.5686 2.5201,21.6086 L0.0001,18.1216 C0.0001,18.1216 9.6851,8.2736 27.1431,2.5286 Z M28.3755,31.3254 L28.3755,38.0104 C28.3755,38.6844 28.4075,39.3254 28.4725,39.9354 C28.5365,40.5444 28.7305,41.0814 29.0555,41.5474 C29.3795,42.0144 29.8715,42.3894 30.5325,42.6744 C31.1935,42.9594 32.1195,43.1024 33.3115,43.1024 C34.4515,43.1024 35.4105,42.9334 36.1875,42.5964 L36.1875,31.8694 C36.1875,31.6104 36.1815,31.3004 36.1685,30.9364 C36.1555,30.5744 36.1425,30.1984 36.1295,29.8094 C36.1165,29.4204 36.0905,29.0454 36.0515,28.6824 C36.0125,28.3194 35.9545,27.9964 35.8765,27.7104 C35.5655,26.4414 34.9565,25.4174 34.0495,24.6394 C33.1425,23.8624 31.9375,23.4734 30.4355,23.4734 C29.0365,23.4734 27.9405,23.7334 27.1505,24.2514 C26.3605,24.7694 25.8105,25.2874 25.4995,25.8054 L25.4995,19.1984 C25.4995,18.3954 25.3625,17.7284 25.0905,17.1974 C24.8185,16.6654 24.4555,16.2584 24.0025,15.9724 C23.5485,15.6874 23.0375,15.4864 22.4675,15.3694 C21.8965,15.2534 21.3005,15.1954 20.6795,15.1954 C20.3425,15.1954 19.9215,15.2084 19.4165,15.2344 C18.9105,15.2604 18.3475,15.3384 17.7255,15.4674 L17.7255,42.7524 L25.5385,42.7524 L25.5385,30.6254 C25.5385,30.3414 25.6605,30.0754 25.9075,29.8284 C26.1525,29.5824 26.5615,29.4594 27.1315,29.4594 C27.7015,29.4594 28.0505,29.6284 28.1805,29.9644 C28.3105,30.3024 28.3755,30.7554 28.3755,31.3254 Z" id="Combined-Shape" fill="#222222"></path>
        </g>
    </g>
</svg>